<svg xmlns="http://www.w3.org/2000/svg" version="1.1" width="600px" height="600px" viewBox="0 0 200 200" style="overflow:hidden!important;"><defs id="SvgjsDefs46383"></defs><g id="svga-group-wrapper"><g id="svga-group-backs-single"></g><g id="svga-group-humanwrap-move" transform="matrix(1,0,0,1,0,0)"><g id="svga-group-humanwrap" transform="matrix(1,0,0,1,0,0)"><g id="svga-group-hair-back-move" transform="matrix(1,0,0,1,0,0)"><g id="svga-group-hair-back" transform="matrix(1,0,0,1,0,0)"></g></g><g id="svga-group-humanbody-back"><path id="SvgjsPath46641" d="M86.5 122c0 18.8 2.7 50.3-8.1 58s-31.8 13.9-36.7 24.4-3.6 14.4-3.6 14.4h124.1s.6-8.1-4.2-15.4c-6.6-10.1-28.5-17.7-36.5-22.9-8.1-5.2-10.9-32.2-10.9-58.8l-24.1.3z" fill="#ffffff" stroke-width="none" opacity="1"></path></g><g id="svga-group-chinshadow-single"></g><g id="svga-group-humanbody-front"><path id="SvgjsPath46642" d="M163.4 220.1H37.2l-.3-.9c-.1-.5-1.3-4.7 3.6-15.3 3.4-7.3 13.6-12.4 23.5-17.4 5.1-2.5 9.9-5 13.6-7.5 8.6-6 8.1-29.8 7.7-47.1-.1-3.5-.1-6.8-.1-9.8v-1.3l26.7-.4v1.3c0 32 3.8 53.5 10.3 57.7 2.4 1.6 6 3.3 10.2 5.4 9.7 4.7 21.9 10.6 26.7 18 5 7.6 4.4 15.9 4.4 16.2l-.1 1.1zm-124.1-2.6h121.6c-.1-2.4-.6-8.2-4-13.4-4.4-6.7-16.2-12.5-25.6-17-4.3-2.1-8-3.9-10.5-5.5-9.8-6.3-11.4-38.8-11.5-58.6l-21.5.4c0 2.6.1 5.5.1 8.5.4 18.9.9 42.4-8.8 49.3-3.8 2.7-8.7 5.1-13.9 7.7-9.5 4.8-19.4 9.7-22.3 16.1-3.3 6.9-3.7 10.9-3.6 12.5z" fill="#000000" stroke-width="none" opacity="1"></path><path id="SvgjsPath46643" d="M76.8 188.7c4.8 2.3 10.4 3.9 15.7 2.9.4-.1.4-.7 0-.8-5.1-.9-10.2-1.4-15.2-3.2-.6-.2-1.1.8-.5 1.1z" fill="#000000" stroke-width="none" opacity="1"></path><path id="SvgjsPath46644" d="M108.3 191.1c2.4.3 4.9-.4 7.1-1.2 2.1-.8 4.3-1.7 5.8-3.4.5-.5-.1-1.2-.7-.9-2.1.9-3.9 2.3-6.1 3-2 .7-4.1 1-6.2 1.5-.6.1-.4.9.1 1z" fill="#000000" stroke-width="none" opacity="1"></path></g><g id="svga-group-clothes-single"><path id="SvgjsPath46763" d="M35.41 220.36s-1.42-6.88 2.61-14.95 8.07-12.34 37.02-25.39c0 0 6.64 8.54 23.49 8.78s24.92-8.78 24.92-8.78 16.61 7.59 20.65 10.2 12.1 6.88 16.14 12.34 3.28 17.8 3.28 17.8H35.41z" fill="#ffffff" stroke-width="none" opacity="1"></path><path id="SvgjsPath46764" d="M161.04 201.97c-3.42-4.63-9.47-8.33-13.89-11.03-.93-.57-1.79-1.09-2.51-1.56-4.05-2.62-20.09-9.96-20.77-10.27-.4-.18-.87-.08-1.16.24-.08.09-7.99 8.67-24.16 8.45-16.11-.23-22.66-8.32-22.72-8.4-.28-.36-.78-.49-1.2-.3-28.99 13.07-33.31 17.47-37.5 25.86-4.14 8.28-2.76 15.31-2.7 15.6.1.46.51.8.98.8h128.11c.53 0 .97-.41 1-.94.03-.52.73-12.77-3.48-18.45zm-1.6 1.19c.04.06.08.13.13.19-1.01-.51-2.1-.88-3.19-1.19.86-.59 1.46-.74 1.48-.74l-.03-.15c.58.6 1.13 1.24 1.61 1.89zm-13.33-10.51c3.13 1.91 7.1 4.34 10.25 7.19-2.36 1.11-7.69 5.18-8.69 19.52H52.95c-1.33-10.1-3.49-15.72-5.39-18.83.15-.03.14-.28-.01-.3l-.2-.03c-.85-1.32-1.63-2.14-2.26-2.65 4.25-3.76 11.36-7.85 25.22-14.27 1.74 2.41 8.22 9.42 25.7 11.15 1.49.15 2.93.22 4.31.22 16.2 0 25.4-9.37 27.34-11.57 5.21 2.44 13.3 6.31 15.9 7.99.73.47 1.6 1 2.55 1.58zm3.63 25.9c1 .28 2 .56 3.01.81h-3.07c.02-.27.03-.55.06-.81zM38.72 206.27c3.12 1.49 6.63 2.74 10.09 2.79.03 0 .05-.02.07-.03.29 1.01.57 2.11.83 3.32-4.28-.75-8.11-1.54-12.12-3.34.31-.89.69-1.8 1.13-2.74zm4.15-6.52c.7.3 1.43.54 2.18.69.73.95 1.59 2.39 2.46 4.54-2.35-.62-4.67-1.22-6.94-2.12.66-1.07 1.41-2.09 2.3-3.11zm1.54-.08c-.39-.09-.78-.19-1.17-.32.12-.13.25-.27.38-.4.21.16.47.39.79.72zm34.58-15.06c-.41.39-.75.88-1.1 1.32-.21.27-.42.54-.62.82-.58-.36-1.11-.72-1.59-1.07.61-.7 1.29-1.34 1.99-1.95.41.28.84.57 1.32.88zm1.56.92c-.5.74-.94 1.52-1.38 2.29-.58-.3-1.11-.6-1.61-.91.25-.29.5-.57.75-.87.34-.4.71-.8.99-1.25.39.25.81.5 1.25.74zm2.65 1.27c-.55.7-1.04 1.45-1.54 2.19-.75-.31-1.44-.64-2.09-.97.49-.74.98-1.5 1.41-2.28.69.37 1.42.72 2.22 1.06zm1.91.75c-.46.73-.84 1.53-1.21 2.3-.64-.22-1.24-.45-1.82-.69.54-.71 1.11-1.42 1.6-2.16.45.18.93.37 1.43.55zm8.08 4.51c.28-.84.58-1.69.76-2.55.46.05.94.1 1.42.13-.3.85-.53 1.73-.73 2.61-.5-.05-.98-.12-1.45-.19zm-.37-.05c-1.69-.26-3.26-.57-4.71-.92.33-.78.67-1.59.93-2.4 1.4.33 2.92.59 4.55.78-.31.82-.54 1.69-.77 2.54zm-5.14-1.03c-.55-.14-1.09-.29-1.61-.44.4-.76.8-1.54 1.1-2.34.43.12.88.24 1.34.36-.32.79-.58 1.62-.83 2.42zm-2.03-.56c-.47-.14-.93-.29-1.37-.44.43-.75.87-1.52 1.2-2.31.41.14.82.28 1.26.41-.42.74-.77 1.54-1.09 2.34zm31.24-4.56c.41.71.82 1.43 1.26 2.12-.78.44-1.62.88-2.51 1.29-.35-.76-.73-1.52-1.1-2.27-.02-.03-.04-.04-.06-.06a30.4 30.4 0 0 0 2.41-1.08zm2.46-1.37c.28.33.56.67.84 1 .23.26.45.53.68.79-.71.49-1.49.99-2.33 1.48-.41-.71-.85-1.39-1.3-2.08.77-.4 1.47-.8 2.11-1.19zm1.89-1.26c.23.35.47.69.74 1.01.19.23.41.5.65.75-.4.32-.84.65-1.31.98-.25-.28-.53-.55-.78-.83l-.84-.87c.57-.36 1.08-.7 1.54-1.04zm1.65-1.3c.2.22.4.44.61.65.29.3.57.63.88.93-.37.34-.8.7-1.27 1.09-.2-.19-.41-.38-.58-.58-.31-.35-.6-.71-.88-1.09.49-.37.9-.71 1.24-1zm-8.61 5.23c.32.76.63 1.53.97 2.29-3.94 1.78-8.9 3.15-14.82 3.18.14-.95.19-1.93.04-2.86 5.62-.16 10.21-1.29 13.8-2.73 0 .03 0 .08.01.12zm9.4-5.94c.47.22 1.19.55 2.07.96-.26.27-.58.59-.98.96-.29-.32-.61-.62-.91-.93-.2-.2-.41-.4-.61-.61.17-.13.31-.27.43-.38zm-23.59 8.55c-.05.96-.05 1.91-.12 2.86-.73 0-1.48-.03-2.24-.08.12-.58.18-1.18.09-1.77-.02-.15-.27-.15-.29 0-.08.59-.14 1.16-.24 1.73-.36-.03-.72-.05-1.09-.08-.39-.04-.76-.08-1.14-.13.25-.87.48-1.74.63-2.63.91.06 1.85.11 2.82.12.55.02 1.06-.01 1.58-.02zm-22.73-6.28c-.76.54-1.41 1.21-2 1.94-.73-.55-1.34-1.08-1.83-1.56.74-.55 1.51-1.11 2.14-1.77.45.41 1.01.88 1.69 1.39zm-2.58-2.26c.17.18.4.41.66.65-.78.49-1.49 1.11-2.19 1.72-.45-.46-.81-.86-1.07-1.19.85-.38 1.71-.77 2.6-1.18zm-34.45 22.02c2.36 1.04 4.83 1.94 7.39 2.28.36.94.72 2 1.07 3.2-3.4-.85-6.65-1.49-9.9-2.83.01-.01.01-.03.02-.04.46-.92.93-1.78 1.42-2.61zm-4.15 13.45c2.58 1.32 5.43 2.39 8.29 2.63.19.02.22-.27.04-.32-2.87-.83-5.61-1.55-8.32-2.77.04-.89.13-1.91.32-3.02 4.1 2.29 9.02 4.24 13.74 4.2.14 0 .17-.21.03-.25-4.81-1.23-9.2-2.15-13.69-4.39.19-1.04.47-2.16.85-3.33 3.71 2 8.12 3.44 12.36 3.35.41 1.92.79 4.1 1.12 6.57H36.28c-.06-.61-.12-1.52-.1-2.67zm126.38 2.66h-7.79c-1.64-.49-3.32-.85-4.99-1.23.09-.98.21-1.91.34-2.78 2.84 1.28 5.93 2.15 9.01 2.42.21.02.24-.31.05-.36-3.05-.79-6-1.63-8.96-2.64.15-.89.32-1.72.5-2.5 2.27.81 4.55 1.5 6.93 1.99.21.04.3-.26.09-.32-2.32-.65-4.63-1.34-6.9-2.13.22-.88.47-1.69.72-2.43 2.57.87 5.17 1.73 7.81 2.33.22.05.29-.25.09-.33-2.51-.99-5.13-1.74-7.73-2.47.27-.71.55-1.36.83-1.95 2.33.81 4.7 1.65 7.09 2.17.26.06.35-.29.11-.39-2.23-.92-4.62-1.58-6.97-2.23.39-.74.79-1.38 1.18-1.92 2.01.72 4.05 1.57 6.12 2.04.22.05.39-.28.16-.39-1.9-.87-3.98-1.43-5.98-2.06.55-.69 1.08-1.22 1.56-1.62 1.47.47 2.85 1.1 4.27 1.68 2.49 4.55 2.53 12.42 2.46 15.12z" fill="#000000" stroke-width="none" opacity="1"></path></g><g id="svga-group-head" transform="matrix(1,0,0,1,0,0)"><g id="svga-group-ears-left-move" transform="matrix(1,0,0,1,0,0)"><g id="svga-group-ears-left" transform="matrix(1,0,0,1,0,0)"><path id="SvgjsPath46661" d="M64.8 80.5c-.2-.3-3.3-4.3-5.9-6.7s-3.4-2.4-4.6-.9c-1.3 1.5-2.9 9.1-2.5 12.4.4 3.4 3.6 8.7 5.2 11.7 1.7 3 3.3 6.7 5.1 6.3 1.9-.4 4.4-4.6 5.7-7.7 1.2-3.1.6-10.9-3-15.1z" fill="#ffffff" stroke-width="none" opacity="1"></path><path id="SvgjsPath46662" d="M56.9 98.9c-.3-.5-.5-1-.8-1.4l-.6-1c-1.8-3.1-4.4-7.8-4.8-11-.4-3.5 1.2-11.4 2.7-13.2.6-.7 1.2-1.3 2.2-1.4 1.2-.1 2.3.7 3.9 2.2 1.6 1.4 3.5 3.6 5.8 6.5l.2.3c3.9 4.6 4.5 12.8 3.2 16.1-1.1 3-3.9 7.8-6.4 8.3h-.5c-2 .1-3.4-2.6-4.9-5.4zm7.2-17.8s-.1-.1-.2-.3c-2.2-2.8-4.1-5-5.6-6.3-1.2-1.1-2.1-1.7-2.4-1.7-.2 0-.4.2-.8.7-1 1.2-2.6 8.4-2.3 11.7.3 2.8 2.8 7.3 4.5 10.3l.6 1c.3.5.5 1 .8 1.4.9 1.7 2.5 4.6 3.3 4.4 1.2-.2 3.6-3.7 4.9-7.1 1.1-2.8.4-10.2-2.8-14.1z" fill="#000000" stroke-width="none" opacity="1"></path><path id="SvgjsPath46663" d="M54 87c-.3-2.3-.5-7.8.8-9.6 2.2-2.9 6 6.4 6.9 9.3 0 .1.1.2.1.3.2.3-.1.7-.4.6-.4-.2-.9-.6-1.3-.8-1.1-.5-1.6.5-1.3 1.8.4 1.8 1.4 2.9 2.2 4.3.1.2 0 .4-.2.3-1.6-.9-3.5-4.5-3.1-6.6.3-2 1.9-1.8 3.1-.8-.7-1.7-1.5-3.3-2.5-4.8-.6-.9-1.2-2-2.2-2.2-1.2-.2-1 .3-1.2 1.8-.8 4.8-.3 10.4 2.5 14.5.1.1 0 .2-.1.1-1.7-2.3-2.9-4.9-3.3-8.2z" fill="#000000" stroke-width="none" opacity="1"></path></g></g><g id="svga-group-ears-right-move" transform="matrix(1,0,0,1,0,0)"><g id="svga-group-ears-right" transform="matrix(1,0,0,1,0,0)"><path id="SvgjsPath46664" d="M135.2 80.5c.2-.3 3.3-4.3 5.9-6.7 2.6-2.4 3.4-2.4 4.6-.9s2.9 9.1 2.5 12.4c-.4 3.4-3.6 8.7-5.2 11.7-1.7 3-3.3 6.7-5.1 6.3s-4.4-4.6-5.7-7.7c-1.2-3.1-.6-10.9 3-15.1z" fill="#ffffff" stroke-width="none" opacity="1"></path><path id="SvgjsPath46665" d="M138.1 104.4h-.5c-2.5-.5-5.2-5.4-6.4-8.3-1.3-3.4-.7-11.5 3.2-16.1l.2-.3c2.3-2.9 4.2-5.1 5.8-6.5 1.6-1.4 2.7-2.2 3.9-2.2 1 .1 1.6.7 2.2 1.4 1.5 1.8 3.1 9.7 2.7 13.2-.4 3.2-3 7.9-4.8 11l-.6 1c-.3.5-.5.9-.8 1.4-1.4 2.7-2.8 5.4-4.9 5.4zm-2.2-23.3c-3.2 3.9-3.9 11.2-2.8 14.1 1.3 3.4 3.7 6.9 4.9 7.1.8.2 2.4-2.7 3.3-4.4.3-.5.5-1 .8-1.4l.6-1c1.7-3 4.2-7.5 4.5-10.3.4-3.3-1.3-10.5-2.3-11.7-.4-.4-.6-.7-.8-.7-.3 0-1.2.5-2.4 1.7-1.5 1.4-3.3 3.5-5.6 6.3 0 .2-.1.3-.2.3z" fill="#000000" stroke-width="none" opacity="1"></path><path id="SvgjsPath46666" d="M146 87c.3-2.3.5-7.8-.8-9.6-2.2-2.9-6 6.4-6.9 9.3 0 .1-.1.2-.1.3-.2.3.1.7.4.6.4-.2.9-.6 1.3-.8 1.1-.5 1.6.5 1.3 1.8-.4 1.8-1.4 2.9-2.2 4.3-.1.2 0 .4.2.3 1.6-.9 3.5-4.5 3.1-6.6-.3-2-1.9-1.8-3.1-.8.7-1.7 1.5-3.3 2.5-4.8.6-.9 1.2-2 2.2-2.2 1.2-.2 1 .3 1.2 1.8.8 4.8.3 10.4-2.5 14.5-.1.1 0 .2.1.1 1.7-2.3 2.9-4.9 3.3-8.2z" fill="#000000" stroke-width="none" opacity="1"></path></g></g><g id="svga-group-faceshape-wrap" transform="matrix(1,0,0,1,0,0)"><g id="svga-group-faceshape-single"><path id="SvgjsPath46869" d="M138.2 58.2c-2-10.8-13.3-27.4-37.2-27.4S69.1 43.5 65.5 53c-3 8.1-3 21.3-3 21.3s3 33.8 5.2 39.8c2.1 5.9 18.2 24.2 20.8 25.9 2.5 1.7 17.4 3 19.1 2.5 1.7-.4 26.3-26.3 27.6-29.7 1.3-3.4 4.4-32.9 4.3-38.5-.1 0 .1-8.4-1.3-16.1z" fill="#ffffff" stroke-width="none" opacity="1"></path><path id="SvgjsPath46870" d="M106.3 143.9c-4.4 0-16.1-1.1-18.6-2.8-2.8-1.8-19.1-20.3-21.3-26.5-2.2-6-5.1-38.7-5.2-40.1v-.1c0-.6 0-13.6 3.1-21.8 5.8-15.5 17.8-23 36.7-23 10.9 0 20.5 3.4 27.7 10 5.5 5 9.6 11.9 10.8 18.5 1.4 7.6 1.2 15.7 1.2 16.4.1 6-3.1 35.4-4.4 38.9-.9 2.4-10 12.3-13.9 16.4-3.3 3.5-6.6 6.9-9.1 9.4-4.5 4.4-5 4.6-5.4 4.7h-1.6zM63.8 74.3c.1 1.6 3.1 33.8 5.1 39.4 2 5.6 18 23.7 20.3 25.2 2.1 1.4 15.8 2.7 18 2.4 2.6-1.7 25.7-26 26.8-28.9 1.2-3.1 4.3-32.6 4.2-38 0-.1.2-8.4-1.2-15.9-1.1-6-4.8-12.4-10-17-6.7-6.1-15.7-9.3-26-9.3-17.7 0-28.9 7-34.3 21.3-2.8 7.5-2.9 19.9-2.9 20.8z" fill="#000000" stroke-width="none" opacity="1"></path></g></g><g id="svga-group-mouth-single-move" transform="matrix(1,0,0,1,0,0)"><g id="svga-group-mouth-single" transform="matrix(1,0,0,1,0,0)"><path id="SvgjsPath46721" d="M113.06 120.65c-.29.14-.56.24-.84.34-.01 0-.01-.01-.02-.01-2.76-.78-4.09-3.51-6.88-4.24-2.03-.53-4.09.07-5.57 1.36-.96-1.17-2.54-1.53-4.11-1.13-3.23.82-4.73 4.14-8.26 4.42-.07.01-.11.04-.16.07-.14-.04-.29-.06-.43-.1-.33-.1-.47.37-.14.47.49.15.96.24 1.42.31.03.06.08.11.16.13 2.63.87 4.33 3.03 6.8 4.17 2.02.93 4.33 1.35 6.59 1.22 4.32-.25 8.06-2.62 10.16-5.98.53-.17 1.05-.37 1.56-.61.3-.14.03-.56-.28-.42zm-21.53-.48c1.94-1.45 5.67-4.76 7.9-1.66.02.02.04.02.06.04.07.15.27.25.42.1 2.43-2.33 5.66-1.82 8.07.2 1.11.93 2.12 1.83 3.48 2.37 0 0-.01 0-.01.01l-.01.01c-2.11.55-3.97.14-6.35-.24-.06-.01-.12-.01-.18-.01.11-.14.2-.3.22-.48.02-.13-.04-.26-.19-.3-.13-.03-.31.04-.33.17-.04.27-.22.49-.52.59-.16.01-.32.02-.48.05.42-.49.65-1.08.65-1.72 0-.32-.54-.32-.54 0-.01.7-.32 1.32-.91 1.78-.05.04-.06.09-.07.13-.9.25-1.79.59-2.8.66-1.02.07-1.95-.24-2.87-.53-.65-.49-1.06-1.19-1.12-1.97-.02-.31-.56-.32-.54 0 .04.63.28 1.19.66 1.69-.54-.13-1.09-.21-1.67-.14-.87.11-1.66.53-2.51.72-1.17.26-2.34.26-3.49.09 1.18-.28 2.16-.83 3.13-1.56zm8.09 6.98c-2.63-.23-4.94-1.24-6.96-2.75-1.05-.78-2.02-1.56-3.18-2.13 1.27.02 2.51-.2 3.89-.56.55-.15 1.01-.2 1.44-.19-.21.25-.41.51-.62.76-.21.25.26.5.47.25l.78-.96c.56.09 1.1.26 1.78.47.24.07.47.13.71.19-.38.38-.64.83-.77 1.33-.08.31.45.44.52.13.12-.48.37-.9.75-1.24.04-.04.04-.08.05-.12.25.04.49.06.74.07-.7 1-.92 2.17-.6 3.32.08.31.61.18.52-.13-.31-1.13-.06-2.24.7-3.18.01-.01.01-.01.01-.02.06 0 .12 0 .18-.01 1.03-.08 1.86-.51 2.83-.77.7-.19 1.32-.19 1.92-.11 1.2.51 1.99 1.59 2.03 2.8.01.31.55.32.54 0-.03-.98-.48-1.87-1.22-2.53.48.11.98.23 1.51.3 1.16.15 2.29.08 3.38-.18-2.42 3.52-6.73 5.66-11.4 5.26z" fill="#000000" stroke-width="none" opacity="1"></path></g></g><g id="svga-group-eyes-left-move" transform="matrix(1,0,0,1,0,0)"><g id="svga-group-eyes-left" transform="matrix(1,0,0,1,0,0)"><g id="svga-group-eyesback-left"></g><g id="svga-group-eyesiriswrapper-left"><g id="svga-group-eyesiriscontrol-left" transform="matrix(1,0,0,1,0,0)"><g id="svga-group-eyesiris-left" transform="matrix(1,0,0,1,0,0)"><path id="SvgjsPath46693" d="M85 84.8c-1-1.9-3.2-2.7-5.2-2-2.2.8-3.8 3-3.1 5.4.4 1.2 1.5 2.4 2.8 2.7.5.1 1 .1 1.5.1.5.1 1.1 0 1.7-.2 2.4-.9 3.5-3.7 2.3-6z" fill="#ffffff" stroke-width="none" opacity="1"></path><path id="SvgjsPath46694" d="M83.4 85.8c0-.1 0-.1-.1-.1-.6-1.1-2-1.5-3.1-1 .2.2.4.5.6.7.2.3.5 1 .1 1.2-.4.2-1 0-1.3-.2-.2-.1-.3-.3-.5-.5 0 .1-.1.1-.1.2-.1.2-.1.4-.1.6-.2.7 0 1.4.5 1.9.2.2.5.3.8.4.6.3 1.2.4 1.8.1-.1-.1-.2-.2-.2-.4 0-.3.2-.6.5-.7.3-.1.6 0 .7.2.3-.3.5-.7.6-1.1.2-.3.1-.9-.2-1.3zm-2 5.3H81c-.5 0-1 0-1.4-.1-1.3-.3-2.4-1.4-2.9-2.8-.8-2.5.9-4.8 3.1-5.5 2.1-.8 4.4.1 5.4 2 .6 1.1.7 2.5.2 3.7s-1.4 2.1-2.6 2.5c-.5.2-1 .2-1.4.2zm-.4-.3c.6.1 1.1 0 1.6-.2 1.1-.4 2-1.2 2.4-2.4.4-1.1.4-2.3-.2-3.4-.9-1.8-3.1-2.6-5-1.9-2.1.7-3.7 2.9-3 5.2.4 1.3 1.5 2.3 2.7 2.6.5.1 1 .1 1.5.1z" fill="#000000" stroke-width="none" opacity="1"></path></g></g></g><g id="svga-group-eyesfront-left"><path id="SvgjsPath46785" d="M81 74.4c-6.9 0-12.5 5.6-12.5 12.5S74.1 99.4 81 99.4s12.5-5.6 12.5-12.5S87.9 74.4 81 74.4zm7.1 17s-3.9.4-5.4.4c-4.1 0-7.1-1.8-7.1-1.8s-7.5-5.3-2.3-7.1c5-1.7 11.2.8 13.2 2.9 2.1 2.1 1.6 5.6 1.6 5.6z" fill="#ffffff" stroke-width="none" opacity="1"></path><path id="SvgjsPath46786" d="M71.3 84c-.3.8-.2 1.7.4 2.8 1.4 2.4 3.9 4.2 7.1 4.9 1.2.3 2.5.4 3.9.4s3-.1 4.7-.4c.1 0 .2-.1.3-.2 0 .1.1.3.3.3.2.1.5 0 .6-.3.7-1.9 0-4.3-1.6-6-1.2-1.3-3-2.2-5.4-3-3.2-.9-5.9-1-8.2-.2-1.2.5-1.8 1-2.1 1.7zm.8.4c.2-.5.7-.8 1.5-1.1 2.1-.7 4.7-.6 7.7.2 2.3.7 3.9 1.5 5 2.7 1.4 1.4 1.9 3.4 1.4 4.9-.1-.2-.2-.3-.4-.3h-.1c-3.3.6-6 .6-8.3 0-2.9-.7-5.3-2.3-6.5-4.5-.3-.5-.6-1.3-.3-1.9zm-4.9-3c.1 0 .2.1.2.2 0 .3.1.5.3.7.4.3 1.3.4 2.2.3.4-.1.9-.3 1.6-.5 1.6-.6 3.8-1.3 6.5-1.4 3.6-.1 8.3 1.2 10.3 4.2 1.2 1.7 1.7 4.2 1.5 7.2v.1c0 .1-.1.2-.2.2s-.2-.1-.2-.2V92c.2-2.9-.3-5.3-1.4-7-1.9-2.8-6.5-4.1-9.9-4-2.6 0-4.8.8-6.4 1.3-.6.2-1.2.4-1.6.5-1.1.4-2.1.2-2.6-.2-.3-.2-.5-.6-.5-1 0-.1.1-.2.2-.2z" fill="#000000" stroke-width="none" opacity="1"></path></g></g></g><g id="svga-group-eyes-right-move" transform="matrix(1,0,0,1,0,0)"><g id="svga-group-eyes-right" transform="matrix(1,0,0,1,0,0)"><g id="svga-group-eyesback-right"></g><g id="svga-group-eyesiriswrapper-right"><g id="svga-group-eyesiriscontrol-right" transform="matrix(1,0,0,1,0,0)"><g id="svga-group-eyesiris-right" transform="matrix(1,0,0,1,0,0)"><path id="SvgjsPath46695" d="M123.4 84.8c-1-1.9-3.2-2.7-5.2-2-2.2.8-3.8 3-3.1 5.4.4 1.2 1.5 2.4 2.8 2.7.4.1.9.1 1.4.1.5.1 1.1 0 1.7-.2 2.5-.9 3.6-3.7 2.4-6z" fill="#ffffff" stroke-width="none" opacity="1"></path><path id="SvgjsPath46696" d="M121.8 85.8c0-.1 0-.1-.1-.1-.6-1.1-2-1.5-3.1-1 .2.2.4.5.6.7.2.3.5 1 .1 1.2-.4.2-1 0-1.3-.2-.2-.1-.3-.3-.5-.5 0 .1-.1.1-.1.2-.1.2-.1.4-.1.6-.2.7 0 1.4.5 1.9.2.2.5.3.8.4.6.3 1.2.4 1.8.1-.1-.1-.2-.2-.2-.4 0-.3.2-.6.5-.7.3-.1.6 0 .7.2.3-.3.5-.7.6-1.1.2-.3 0-.9-.2-1.3zm-2.1 5.3h-.4c-.5 0-1 0-1.4-.1-1.3-.3-2.4-1.4-2.9-2.8-.8-2.5.9-4.8 3.1-5.5 2.1-.8 4.4.1 5.4 2 .6 1.1.7 2.5.2 3.7s-1.4 2.1-2.6 2.5c-.5.2-.9.2-1.4.2zm-.3-.3c.6.1 1.1 0 1.6-.2 1.1-.4 2-1.2 2.4-2.4.4-1.1.4-2.3-.2-3.4-.9-1.8-3.1-2.6-5-1.9-2.1.7-3.7 2.9-3 5.2.4 1.3 1.5 2.3 2.7 2.6.5.1 1 .1 1.5.1z" fill="#000000" stroke-width="none" opacity="1"></path></g></g></g><g id="svga-group-eyesfront-right"><path id="SvgjsPath46787" d="M119 74.4c-6.9 0-12.5 5.6-12.5 12.5s5.6 12.5 12.5 12.5 12.5-5.6 12.5-12.5-5.6-12.5-12.5-12.5zm5.3 15.6s-3 1.7-7.1 1.8c-1.5 0-5.4-.4-5.4-.4s-.5-3.4 1.5-5.5 8.2-4.6 13.2-2.9c5.4 1.7-2.2 7-2.2 7z" fill="#ffffff" stroke-width="none" opacity="1"></path><path id="SvgjsPath46790" d="M126.6 82.4c-2.3-.8-5.1-.7-8.2.2-2.4.7-4.2 1.7-5.4 3-1.6 1.7-2.3 4-1.6 6 .1.2.3.4.6.3.2-.1.3-.2.3-.3.1.1.2.2.3.2 1.7.3 3.3.4 4.7.4 1.4 0 2.7-.1 3.9-.4 3.1-.7 5.7-2.6 7.1-4.9.6-1.1.7-2 .4-2.8-.4-.8-1-1.3-2.1-1.7zm.9 3.9c-1.2 2.2-3.6 3.8-6.5 4.5-2.3.6-4.9.5-8.3 0h-.1c-.2 0-.4.1-.4.3-.5-1.6.1-3.5 1.4-4.9 1.1-1.2 2.7-2 5-2.7 3-.9 5.6-.9 7.7-.2.8.3 1.3.6 1.5 1.1.3.6 0 1.4-.3 1.9zm5.2-4.9c-.1 0-.2.1-.2.2 0 .3-.1.5-.3.7-.4.3-1.3.4-2.2.3-.4-.1-.9-.3-1.6-.5-1.6-.6-3.8-1.3-6.5-1.4-3.6-.1-8.3 1.2-10.3 4.2-1.2 1.7-1.7 4.2-1.5 7.2v.1c0 .1.1.2.2.2s.2-.1.2-.2V92c-.2-2.9.3-5.3 1.4-7 1.9-2.8 6.5-4.1 9.9-4 2.6 0 4.8.8 6.4 1.3.6.2 1.2.4 1.6.5 1.1.2 2.1.1 2.6-.3.3-.2.5-.6.5-1 0 0-.1-.1-.2-.1z" fill="#000000" stroke-width="none" opacity="1"></path></g></g></g><g id="svga-group-facehighlight-single"></g><g id="svga-group-eyebrows-left-move" transform="matrix(1,0,0,1,0,0)"><g id="svga-group-eyebrows-left-rotate" transform="matrix(1,0,0,1,0,0)"><g id="svga-group-eyebrows-left" transform="matrix(1,0,0,1,0,0)"><path id="SvgjsPath46741" d="M74.33 71.59c1.52-.07 17.06 3.38 17.49 4.03.43.65-.65 3.02-1.15 3.17-.5.14-15.19-4.53-15.83-4.39-.65.14-6.91 2.59-7.34 2.38-.44-.22 5.32-5.12 6.83-5.19z" fill="#ffffff" stroke-width="none" opacity="1"></path><path id="SvgjsPath46742" d="M67.28 77.2c.35.18.9.08 5.66-1.64.84-.31 1.71-.62 1.97-.69.63.05 4.8 1.29 8.16 2.29 5.89 1.75 7.16 2.1 7.6 2.1.06 0 .11-.01.15-.02.67-.19 1.21-1.59 1.31-1.87.24-.64.45-1.52.11-2.03-.69-1.04-16.86-4.29-17.91-4.24-1.63.08-7.13 4.66-7.31 5.5-.07.26.04.49.26.6zm7.07-5.13c.13-.01.37.01.68.06l2.07 2.3c-1.61-.45-2.16-.55-2.37-.5-.03.01-.08.02-.12.04l-2.21-.88c.86-.59 1.6-1 1.95-1.02zm3.91 2.69-2.22-2.47c.77.13 1.74.32 2.82.54l1.57 2.56c-.84-.25-1.56-.46-2.17-.63zm3.08.9-1.63-2.65c.72.15 1.47.31 2.23.48l.63 2.53c-.43-.13-.84-.25-1.23-.36zm6.77 1.99c-.33-.1-.68-.2-1.05-.3l.67-2.5c.48.12.93.24 1.34.35l-.96 2.45zm1.59-2.28c.3.08.57.16.81.23l-.96 2.45c-.24-.07-.52-.14-.81-.22l.96-2.46zm-3.25 1.8c-.48-.14-.98-.29-1.48-.44l.38-2.46c.61.14 1.2.29 1.76.43l-.66 2.47zm4.1 1.13c-.09-.01-.22-.04-.37-.08l.95-2.41c.14.05.25.09.32.13.11.44-.52 1.99-.9 2.36zm-7.22-2.05c-.01 0-.03-.01-.04-.01l-.65-2.59c.7.16 1.4.32 2.08.48l-.37 2.43c-.34-.11-.69-.22-1.02-.31zm-10.72-1.59c-.12.04-.25.09-.39.14-.53.02-1.48.07-2.24.11.57-.47 1.19-.95 1.79-1.38l1.9.75c-.3.1-.63.23-1.06.38zm-3.91 1.36c.14-.13.31-.28.48-.43.27-.01.6-.03.96-.05-.52.18-1.02.35-1.44.48z" fill="#000000" stroke-width="none" opacity="1"></path></g></g></g><g id="svga-group-eyebrows-right-move" transform="matrix(1,0,0,1,0,0)"><g id="svga-group-eyebrows-right-rotate" transform="matrix(1,0,0,1,0,0)"><g id="svga-group-eyebrows-right" transform="matrix(1,0,0,1,0,0)"><path id="SvgjsPath46743" d="M125.67 71.59c-1.52-.07-17.06 3.38-17.49 4.03-.43.65.65 3.02 1.15 3.17.5.14 15.19-4.53 15.83-4.39.65.14 6.91 2.59 7.34 2.38s-5.32-5.12-6.83-5.19z" fill="#ffffff" stroke-width="none" opacity="1"></path><path id="SvgjsPath46744" d="M133 76.61c-.18-.84-5.68-5.42-7.31-5.5-1.06-.05-17.22 3.2-17.91 4.24-.34.51-.13 1.39.11 2.03.1.28.65 1.68 1.31 1.87.04.01.08.02.15.02.43 0 1.71-.35 7.6-2.1 3.36-1 7.53-2.24 8.16-2.29.25.07 1.12.38 1.97.69 4.76 1.72 5.3 1.81 5.66 1.64.2-.12.31-.35.26-.6zm-5.4-3.52-2.21.88c-.04-.01-.09-.03-.12-.04-.21-.05-.76.06-2.37.5l2.07-2.3c.31-.04.55-.06.68-.06.35.02 1.09.43 1.95 1.02zm-8.02 2.3 1.57-2.56c1.08-.22 2.05-.41 2.82-.54l-2.22 2.47c-.62.17-1.34.38-2.17.63zm-2.16.63.63-2.53c.76-.17 1.51-.33 2.23-.48l-1.63 2.65c-.38.11-.79.23-1.23.36zm-6.5-.82c.41-.11.86-.23 1.34-.35l.67 2.5c-.37.11-.72.21-1.05.3l-.96-2.45zm.35 2.63c-.3.08-.57.16-.81.22l-.96-2.45c.24-.07.51-.15.81-.23l.96 2.46zm1.61-3.13c.56-.14 1.15-.28 1.76-.43l.38 2.46c-.5.15-.99.29-1.48.44l-.66-2.47zm-4.32 1.23c.07-.04.18-.08.32-.13l.95 2.41c-.16.04-.29.07-.37.08-.39-.36-1.02-1.91-.9-2.36zm7.09.62-.37-2.43c.68-.16 1.38-.32 2.08-.48l-.65 2.59c-.01 0-.03.01-.04.01-.33.1-.68.21-1.02.31zm10.68-2.27 1.9-.75c.6.43 1.22.92 1.79 1.38-.76-.04-1.71-.09-2.24-.11-.14-.05-.27-.1-.39-.14-.43-.15-.76-.28-1.06-.38zm3.54 1.26c.36.02.68.03.96.05.17.15.33.3.48.43-.43-.13-.93-.3-1.44-.48z" fill="#000000" stroke-width="none" opacity="1"></path></g></g></g><g id="svga-group-nose-single-move" transform="matrix(1,0,0,1,0,0)"><g id="svga-group-nose-single" transform="matrix(1,0,0,1,0,0)"><path id="SvgjsPath46731" d="M95.9 107.5c2 1 4.3 2 6.4 1 2.2-1.1 2.2-3.4 2-5.6-.8-6.5-1.9-13-3.3-19.4-.2-.8-1.4-.5-1.2.3 1 4.7 1.9 9.4 2.6 14.2.3 2.3 1.1 5 .8 7.3-.5 3.6-4.5 2.2-6.6 1.1-.8-.3-1.4.8-.7 1.1z" fill="#000000" stroke-width="none" opacity="1"></path></g></g><g id="svga-group-hair-front" transform="matrix(1,0,0,1,0,0)"><path id="SvgjsPath46850" d="M78.9 49.1s9.9 9.3 21.2 11.7 22.6 2.9 28 5.8c5.4 2.9 9.5 16.6 6.2 33.5 0 0 3.7-4.7 5.8-13.6s2.5-21 1.4-29.6-8.9-20.2-20.8-27.5-38.9-8-46.1 6c0 0-7.2 1.6-11.3 10.9S52 73.8 67.4 99.8c0 0-3.7-14.4-1.9-23.9 1.8-9.5 7-13.6 8.8-16.5 3.5-5.8 4.6-10.3 4.6-10.3z" fill="#ffffff" stroke-width="none" opacity="1"></path><path id="SvgjsPath46851" d="M142.6 56.7c-1.1-8-8.2-20.2-21.3-28.2-8.5-5.1-22.9-6.7-33.7-3.7-6.4 1.8-11.2 5.2-13.7 9.7-1.7.5-7.8 2.9-11.5 11.3-3.6 8.1-11.9 27.2 4.1 54.4.2.4.8.6 1.2.4s.7-.7.6-1.2c0-.1-3.6-14.3-1.9-23.5 1.3-7 4.4-10.8 6.7-13.7.8-.9 1.4-1.8 1.9-2.5 2.4-3.9 3.7-7.2 4.3-9.1 3 2.5 11.2 9 20.5 10.9 4 .8 7.9 1.4 11.7 2 6.8 1 12.7 1.9 16 3.7 4.6 2.4 9.1 15.1 5.7 32.4-.1.4.1.9.6 1.1.1.1.3.1.4.1.3 0 .6-.1.8-.4.2-.2 3.9-4.9 6-14 2.3-8.4 2.9-20.5 1.6-29.7zM88.2 26.8c10.1-2.9 24.2-1.3 32.1 3.5 6.1 3.7 10.9 8.5 14.4 13.4C117.1 34.9 97.4 32 78 35.4c-.8.1-.5 1.3.3 1.2 19.6-3.4 39.7-.3 57.3 9 .1.1.2.1.3.1 1.4 2.2 2.6 4.5 3.3 6.6-6-6.3-15.7-9.1-23.8-10.6-13.2-2.6-26.8-2.2-40-5 0-.2-.1-.3-.1-.5 0 0 .1-.1.1-.2 2.3-4.3 6.7-7.5 12.8-9.2zm-14 9.8c.1.8.3 1.5.5 2.3h-.1c-4.6 2.3-8.5 5.8-11.3 9.9.3-.8.6-1.5.9-2.1 3.2-7.2 8.3-9.5 10-10.1zM60.5 57.3c.2-.1.3-.2.4-.4 2.3-7.3 7.4-13.2 14.2-16.8.2.6.3 1.1.5 1.7-.1 0-.2.1-.3.2-12.2 10.7-17.2 26.7-13.9 42-3.4-11-2.7-19.9-.9-26.7zm4 34.8c.2 0 .3-.1.4-.2.1.5.2 1 .2 1.5-.2-.5-.4-.9-.6-1.3zM78 48.8s-1.2 4.4-4.6 10.1c-.4.7-1 1.4-1.7 2.3-2 2.5-4.9 6-6.5 11.9 2-9.2 8.8-17.9 10.9-27 .2-.8-1-1.1-1.2-.3-3 12.5-14.5 24.3-10.8 37.8.1 2.4.3 4.9.6 7.1-6.6-17-2.3-35.5 11.2-47.7.6 1.8 1.4 3.6 2.3 5.4-.1.1-.2.3-.2.4zm61.3 37.4c-.9 3.7-2 6.6-3.1 8.8 1.7-14.8-2.3-26.5-7.6-29.3-3.7-2-9.7-2.9-16.7-4-3.8-.6-7.7-1.2-11.6-2-10.7-2.2-20.3-11-20.7-11.4-1.8-3.3-3.1-6.8-3.9-10.5 10.8 2.2 21.7 2.5 32.6 3.8 10.7 1.3 25.3 4.1 31.9 13.6.1.6.2 1.2.3 1.7 1.3 8.9.8 21-1.2 29.3zM122.1 56c-13.3-4.4-28.6-2.3-40.1-11.5-.6-.5-1.5.4-.9.9 8.5 6.8 18.9 7.8 29.3 9.3 12.2 1.9 27.6 6.7 28.4 21.4 0 .8 1.3.8 1.2 0-.5-10.3-8.6-17-17.9-20.1zm5.2-2.5c-14.8-8.6-34.7-2.4-48-14.1-.6-.5-1.5.3-.9.9 13.5 11.9 33.3 5.6 48.2 14.3.8.4 1.4-.7.7-1.1zM92.5 43.3c15.9 2.2 37.3 1.2 45.6 18.2.4.7 1.4.1 1.1-.6-8.4-17.3-30-16.6-46.3-18.8-.8-.1-1.1 1.1-.4 1.2zm-13-9c11.7-5.4 24.8-5.5 36.7-.5.7.3 1.1-.9.3-1.2-12.2-5.1-25.7-4.8-37.7.7-.6.2 0 1.3.7 1z" fill="#000000" stroke-width="none" opacity="1"></path></g><g id="svga-group-glasses-single-move" transform="matrix(1,0,0,1,0,0)"><g id="svga-group-glasses-single" transform="matrix(1,0,0,1,0,0)"></g></g></g></g></g><rect id="svga-credit-rect" width="200" height="15" x="0" y="185" fill="#ecf0f1" opacity="0.5" style="display: none;"></rect><text id="svga-credit-text" font-family="Avenir Next, Roboto, Helvetica, Arial, sans-serif" font-size="10px" text-anchor="start" font-weight="400" size="10px" anchor="start" weight="400" fill="#333333" x="33.40447998046875" y="182.60824704170227" style="display: none;"><tspan id="SvgjsTspan46431" dy="13" x="33.40447998046875">Created on AvatarMaker.com</tspan></text></g></svg>
