<svg xmlns="http://www.w3.org/2000/svg" version="1.1" width="600px" height="600px" viewBox="0 0 200 200" style="overflow:hidden!important;"><g id="svga-group-wrapper"><g id="svga-group-backs-single"><path id="SvgjsPath38595" d="M0 0h200v200H0V0z" fill="#ecf0f1" stroke-width="none" opacity="1"></path></g><g id="svga-group-humanwrap-move" transform="matrix(1,0,0,1,0,0)"><g id="svga-group-humanwrap"><g id="svga-group-hair-back-move" transform="matrix(1,-2.856368900253737e-18,2.856368900253737e-18,1,0,0)"><g id="svga-group-hair-back"></g></g><g id="svga-group-humanbody-back"><path id="SvgjsPath38620" d="m168.2 200-4.6-14.2-34.9-13.4-10.8-9.7-1.4-50.5h-33l-1.4 50.5-10.8 9.7-34.9 13.4-4.6 14.2-3 20h142.4z" fill="#f3d4cf" stroke-width="none" opacity="1"></path><path id="SvgjsPath38621" d="m83.5 112.2-1.4 50.5-10.8 9.7-34.9 13.4-4.6 14.2-3 20H39v-20l1.7-13.3 32.1-12.9 14.1-9.5 2-52.1z" fill="#d4958a" stroke-width="none" opacity="1"></path></g><g id="svga-group-chinshadow-single"><path id="SvgjsPath38616" d="m117.5 151.2-1.1-39H83.5l-1.2 42.6c5 3.2 8.5 5.6 8.5 5.6l6.4 1 6.4-1s6.3-4.3 13.9-9.2z" fill="#c5796d" stroke-width="none" opacity="1"></path></g><g id="svga-group-humanbody-front"></g><g id="svga-group-clothes-single"><path id="SvgjsPath38745" d="m168.9 200-3.2-16-35-11.4-6.8-4.8-.1-1.5-6-8.8v3.5l-.7 12.2-5.6 7.9-6.5 1.9-1.6 5.7-1.5 2.9-5.5-9.3-7.7-1.2-4.3-7.3-2.3-13.1.1-3.2-6 8.8-.1 1.5-6.9 4.8L34.3 184 31 200l-2.4 20h142.7z" fill="#39557e" stroke-width="none" opacity="1"></path><path id="SvgjsPath38746" d="m43 200.7 2.6-10.8 24.2-9.6 5.1-3.2.3-2 8.3-5.7h.1l-1.4-8.7v-3.2l-6 8.8-.1 1.5-6.9 4.8L34.3 184 31 200l-2.4 20h14.2z" fill="#27446f" stroke-width="none" opacity="1"></path><path id="SvgjsPath38747" d="m123.9 167.8 1.9 19.2.9 8.7-8.5-7.7-3.8-5.3-3.1-1.6 2.9 3.4-4.7 2.6-5.8 1.5 5.1-.6-6.3 11.8V220h1.2l-.6-19.8 5.7-12 .7-.1 5.1-2.8 3.1 4.5 9.7 8.1-1.2-12.4-2.3-17.7zm-24.1 29.7 2.1-5.9-2.5 5-4.4-8.7-9.1-3.4 2.8-3.3-3.1 1.6-3.8 5.3-8.5 7.7.9-8.7 1.9-19.2-2.5 17.7-1.2 12.4 9.7-8.1 3.3-4.9.4-.5 8.5 4.3 4.4 8.6-.9.7.8 21.9h1.1l-1-21 1.1-1.5zm7.6-12.8-1.1-.8-.7 1.4 1 1 .8-1.6zm-6.8 13.3 1 1 .7-1.7-1.1-.8-.6 1.5zm-.5 18.6 1 1 .7-1.7-1.1-.8-.6 1.5zm-53.7-28.3 4.9 17.2.9 14.5h1l-.8-14.6-6-17.1zm107.9 15.5-.9 16.2h1.4l.7-16 5.1-15.2-6.3 15z" fill="#18355f" stroke-width="none" opacity="1"></path><path id="SvgjsPath38748" d="m119.6 162.5-.8-1.4v13l-3.9 8 3.5 4.6s1.7-11.1 1.7-11.8c0-.7-.5-12.4-.5-12.4zm-38.7.1.4-2.3-1.3 2.5.9 13.4 1.6 9.5 2.7-4.3-2.9-6.1-1.4-12.7z" fill="#4e688d" stroke-width="none" opacity="1"></path></g><g id="svga-group-head" transform="matrix(1,-2.856368900253737e-18,2.856368900253737e-18,1,0,0)"><g id="svga-group-ears-left-move" transform="matrix(1,0,0,1,0,0)"><g id="svga-group-ears-left"><path id="SvgjsPath38638" d="M61.9 93s-5.5-3-7.7-3.9c0 0-3.9 5.4-5.1 7.2 0 0 3.1 14.7 3.9 17.3l5 6.5 5.4-1.7 4.2-14.2L61.9 93z" fill="#f3d4cf" stroke-width="none" opacity="1"></path><path id="SvgjsPath38639" d="M59.8 104.7c-.2-.4-6-10-6-10l-2.3 7.9 2.6-2.4 1.6 2.9s-.3 5-.2 5.5c0 .5 2.4 4.3 2.4 4.3l1.9-8.2z" fill="#d4958a" stroke-width="none" opacity="1"></path><path id="SvgjsPath38640" d="m59.4 98-5.2-8.9c2.2.9 7.7 1.8 7.7 1.8l5.7 13.3-4.2 14.2-5.4 1.7 3.6-3.4L59.4 98z" fill="#e4b3ab" stroke-width="none" opacity="1"></path></g></g><g id="svga-group-ears-right-move" transform="matrix(1,0,0,1,0,0)"><g id="svga-group-ears-right"><path id="SvgjsPath38641" d="M138.1 93s5.5-3 7.7-3.9c0 0 3.9 5.4 5.1 7.2 0 0-3.1 14.7-3.9 17.3l-5 6.5-5.4-1.7-4.2-14.2 5.7-11.2z" fill="#f3d4cf" stroke-width="none" opacity="1"></path><path id="SvgjsPath38642" d="M140.2 104.7c.2-.4 6-10 6-10l2.3 7.9-2.6-2.4-1.6 2.9s.3 5 .2 5.5c0 .5-2.4 4.3-2.4 4.3l-1.9-8.2z" fill="#d4958a" stroke-width="none" opacity="1"></path><path id="SvgjsPath38643" d="m140.6 98 5.2-8.9c-2.2.9-7.7 1.8-7.7 1.8l-5.7 13.3 4.2 14.2 5.37 1.68-3.57-3.38 2.2-18.7z" fill="#e4b3ab" stroke-width="none" opacity="1"></path></g></g><g id="svga-group-faceshape-wrap"><g id="svga-group-faceshape-single"><path id="SvgjsPath38600" d="M142 85c-.2-9.9-5.2-23.9-5.2-23.9-6.7-11.2-19-18.9-19-18.9-7-1.5-17.8-2.2-17.8-2.2s-10.8.8-17.8 2.2c0 0-12.4 7.6-19 18.9 0 0-5 14-5.2 23.9l.5 6 2.3 17.3-1.9 19.8 2.3 4.6c11.5 6.8 32.3 20.7 32.3 20.7l6.4 1 6.4-1s20.9-13.9 32.3-20.7l2.3-4.6-1.9-19.8 2-17.3 1-6z" fill="#f3d4cf" stroke-width="none" opacity="1"></path><path id="SvgjsPath38601" d="m134.2 108.8-9.2 12.9-5.9 11.8 15.9-18.9z" fill="#ebc3bd" stroke-width="none" opacity="1"></path><path id="SvgjsPath38602" d="m107.6 151.2-7.6 1.5-6.8-1.4-25.9-22.1-1.5-4.2-.3-8.5 14.2 17-5.9-11.8-8.6-12-.1-1.7L62 85.4 66.1 63C67.7 60.3 83 44.1 83 44.1l17-2.2 17.8.3c-7-1.5-17.8-2.2-17.8-2.2s-10.8.8-17.8 2.2c0 0-12.4 7.6-19 18.9 0 0-5 14-5.2 23.9l.5 6 2.3 17.3-1.9 19.8 2.3 4.6c11.5 6.8 32.3 20.7 32.3 20.7l6.4 1 6.4-1s3.14-2.09 7.65-5.04l-6.35 2.84z" fill="#d4958a" stroke-width="none" opacity="1"></path></g></g><g id="svga-group-mouth-single-move" transform="matrix(1,0,0,1,0.5,1)"><g id="svga-group-mouth-single" transform="matrix(1,0,0,1,0,3)"><path id="SvgjsPath38702" d="m90.86 133.49.13 1.07 6.52 3.88 11.26-1.42 5.5-6.18s-14.32-.27-14.52-.27-8.89 2.92-8.89 2.92z" fill="#ecb6a9" stroke-width="none" opacity="1"></path><path id="SvgjsPath38703" d="m87.85 133.25 3.14 1.31 9.34-2.99 13.94-.73 3.94-3.5 1.03.51-2.27-2.56.29 1.97-3.57 2.05-8.83-2.27-3.94 2.34-4.89-1.39-6.94 4.89z" fill="#dd9888" stroke-width="none" opacity="1"></path><path id="SvgjsPath38704" d="m96.42 133.72 4.19-1.4 6.91-.15-6.6 1.63z" fill="#fbd6cd" stroke-width="none" opacity="1"></path></g></g><g id="svga-group-eyes-left-move" transform="matrix(1,0,0,1,0,0)"><g id="svga-group-eyes-left"><g id="svga-group-eyesback-left"><path id="SvgjsPath38768" d="m91.1 104.4-2.5-6.8-10.9-3.1-7.2 2.1 5.5 8.1z" fill="#ffffff" stroke-width="none" opacity="1"></path></g><g id="svga-group-eyesiriswrapper-left" transform="matrix(1,0,0,1,0,0)"><g id="svga-group-eyesiriscontrol-left" transform="matrix(1,0,0,1,0,0)"><g id="svga-group-eyesiris-left"><path id="SvgjsPath38670" d="m82.59 104.53-4.96-1.82-.91-5.21 4.06-3.39 4.96 1.82.91 5.21z" fill="#4e60a3" stroke-width="none" opacity="1"></path><path id="SvgjsPath38671" d="m78.98 100.2.59-2.78 2.71-.88 2.11 1.9-.59 2.78-2.71.88z" fill="#000000" stroke-width="none" opacity="1"></path><path id="SvgjsPath38672" d="m78.88 96.88 1.96 1.88.55-.39-1.1-2.43z" fill="#ffffff" stroke-width="none" opacity="1"></path><path id="SvgjsPath38673" d="m82.49 101.12.47.86.78-.31-.39-.95z" fill="#ffffff" stroke-width="none" opacity="1"></path></g></g></g><g id="svga-group-eyesfront-left"><path id="SvgjsPath38776" d="M68 94.5v11.1l7.7 7.9h10.9l7.7-7.9V94.5l-7.7-7.9H75.7L68 94.5zm2.5 2.1 7.1-2.1 11 3.1 2.5 6.8-15.1.3-5.5-8.1z" fill="#f3d4cf" stroke-width="none" opacity="1"></path><path id="SvgjsPath38777" d="m71.4 96.9 4.9 7.7 7.2-.1-7.5.4-5.9-7.9z" fill="#d4958a" stroke-width="none" opacity="1"></path><path id="SvgjsPath38778" d="m91.9 105.9-2.5-9-11-4.6L65 94.7l4.1 2.6h2.5l7-2.5 9.9 2.9 2.2 6.6z" fill="#000000" stroke-width="none" opacity="1"></path></g></g></g><g id="svga-group-eyes-right-move" transform="matrix(1,0,0,1,0,0)"><g id="svga-group-eyes-right"><g id="svga-group-eyesback-right"><path id="SvgjsPath38769" d="m108.9 104.4 2.5-6.8 10.9-3.1 7.2 2.1-5.5 8.1z" fill="#ffffff" stroke-width="none" opacity="1"></path></g><g id="svga-group-eyesiriswrapper-right" transform="matrix(1,0,0,1,0,0)"><g id="svga-group-eyesiriscontrol-right" transform="matrix(1,0,0,1,0,0)"><g id="svga-group-eyesiris-right"><path id="SvgjsPath38674" d="m119.22 104.53-4.96-1.82-.91-5.21 4.06-3.39 4.96 1.82.91 5.21z" fill="#4e60a3" stroke-width="none" opacity="1"></path><path id="SvgjsPath38675" d="m115.61 100.2.59-2.78 2.71-.88 2.11 1.9-.59 2.78-2.71.88z" fill="#000000" stroke-width="none" opacity="1"></path><path id="SvgjsPath38676" d="m115.51 96.88 1.96 1.88.55-.39-1.1-2.43z" fill="#ffffff" stroke-width="none" opacity="1"></path><path id="SvgjsPath38677" d="m119.12 101.12.47.86.78-.31-.39-.95z" fill="#ffffff" stroke-width="none" opacity="1"></path></g></g></g><g id="svga-group-eyesfront-right"><path id="SvgjsPath38779" d="M124.3 86.6h-10.9l-7.7 7.9v11.1l7.7 7.9h10.9l7.7-7.9V94.5l-7.7-7.9zm-.3 18.1-15.1-.3 2.5-6.8 11-3.1 7.1 2.1-5.5 8.1z" fill="#f3d4cf" stroke-width="none" opacity="1"></path><path id="SvgjsPath38782" d="m128.6 96.9-4.9 7.7-7.2-.1 7.5.4 5.9-7.9z" fill="#d4958a" stroke-width="none" opacity="1"></path><path id="SvgjsPath38783" d="m108.1 105.9 2.5-9 11-4.6 13.4 2.4-4.1 2.6h-2.5l-7-2.5-9.9 2.9-2.2 6.6z" fill="#000000" stroke-width="none" opacity="1"></path></g></g></g><g id="svga-group-facehighlight-single"></g><g id="svga-group-eyebrows-left-move" transform="matrix(1,0,0,1,0,0)"><g id="svga-group-eyebrows-left-rotate" transform="matrix(1,0,0,1,0,0)"><g id="svga-group-eyebrows-left"><path id="SvgjsPath38723" d="m91.7 88.1.1 1.9-1.7 1.7-1.8-.7s-5.5-2.8-5.8-2.8S76 88 76 88l-7.3 2.9-1.3-1.1 6.1-5.1 6.6-.9 7.9 2.1 3.7 2.2z" fill="#2a232b" stroke-width="none" opacity="1"></path><path id="SvgjsPath38724" d="m80.1 83.8 1 .3 1.7 3.6-3-3.8.3-.1zm-10.8 4.4 4.1-.6-5.5 1.8 1.4-1.2zm20.3 2.1 1-2.9.9.5-1.9 2.4zm-.4-3.8-.6 3-.4-3.6 1 .6zM73.1 85l2.3.5-3.2.2.9-.7zm4-.8 2 2-3.1-1.9 1.1-.1z" fill="#3a353a" stroke-width="none" opacity="1"></path></g></g></g><g id="svga-group-eyebrows-right-move" transform="matrix(1,0,0,1,0,0)"><g id="svga-group-eyebrows-right-rotate" transform="matrix(1,0,0,1,0,0)"><g id="svga-group-eyebrows-right"><path id="SvgjsPath38725" d="m108.3 88.1-.1 1.9 1.7 1.7 1.8-.7s5.5-2.8 5.8-2.8 6.5-.2 6.5-.2l7.4 2.9 1.3-1.1-6.1-5.1-6.6-.9-7.9 2.1-3.8 2.2z" fill="#2a232b" stroke-width="none" opacity="1"></path><path id="SvgjsPath38726" d="m119.9 83.8-1 .3-1.7 3.6 3-3.8-.3-.1zm10.8 4.4-4.1-.6 5.5 1.8-1.4-1.2zm-20.3 2.1-1-2.9-.9.5 1.9 2.4zm.4-3.8.6 3 .4-3.6-1 .6zm16.1-1.5-2.3.5 3.2.2-.9-.7zm-4-.8-2 2 3.2-1.8-1.2-.2z" fill="#3a353a" stroke-width="none" opacity="1"></path></g></g></g><g id="svga-group-nose-single-move" transform="matrix(1,0,0,1,0,0)"><g id="svga-group-nose-single" transform="matrix(1,0,0,1,0,2)"><path id="SvgjsPath38714" d="m103.35 108.14-.8-.31 5.16 8.97-1.6 2.28-1.38-.95.22-1.02-1.09.47-1.6 3.15-2.1.08-2.5-.08-1.6-3.15-1.08-.47.21 1.02-1.38.95-1.59-2.28 5.15-8.97.33-10.76-1.13 11.07-5.22 8.81 2.54 3.31 2.17-1.58 1.24 2.76h5.33l1.23-2.76 2.18 1.58 2.54-3.31z" fill="#d4958a" stroke-width="none" opacity="1"></path><path id="SvgjsPath38715" d="m97.27 117.21 1.3.61 3.06.08 1.53-.69-.58-2.35-.98-3.1-2.03 4.07z" fill="#fbe5e2" stroke-width="none" opacity="1"></path></g></g><g id="svga-group-hair-front"><path id="SvgjsPath38817" d="m76.4 63.9-4.1 7.4-9.7 13.5-1.2 19.8 4.4 11.6L58 102l-4.8-16.1 2.1-22.1 11.6-14.2 4.9-1.6 6.5-7 18.4-6.3 25.6 4.9 19.9 20.9 4.2 25.8-2.6 6s-2.8 17.4-3.1 18.1-4 7.9-4 7.9l1.6-13.2-1.6-20.3-12.8-9.1-20.9-.2-19.8-7.3-6.8-4.3z" fill="#2a232b" stroke-width="none" opacity="1"></path><path id="SvgjsPath38818" d="m61.5 104.7 1.2-19.8 9.7-13.5 4.1-7.4 6.8 4.3 19.8 7.4 20.9.2 12.8 9.1 1.6 20.3-1.6 13.2s3.7-7.2 4-7.9 3.1-18.1 3.1-18.1l-4.4-9.8-16.3-10.4-22.9-1.8-17.8-8.8-6.7-5.9-4-7.8 2.7 9.8L70 70.2 59.6 84.1 57.9 102l7.9 14.2-4.3-11.5zM70.9 57l-4.6 12.1-8.7 13.4-.7 7.1-.3-7.6 8.2-13.4L70.9 57zm-3.2-2.4-7.9 11-3.5 12.2 2.3-12.9 9.1-10.3zm10.4-.4L90 60.1l18.1 4.3 16.3 2.8 15.4 8.8 3.7 5.2-2.8-6.2-15.6-9.8-17.6-2.2-17.2-4.1-12.2-4.7zm-3.1-4 29.7-.6 20.9 5.1 13.7 8.7 2.6 8.5-4-7.8-12.8-7.5-21-5.1L75 50.2zm.8-2.8 15.1-5.9 28.1 1.2 10.6 8.7-11-6.9-28-1.5-14.8 4.4z" fill="#1b141c" stroke-width="none" opacity="1"></path></g><g id="svga-group-glasses-single-move" transform="matrix(1,0,0,1,0,0)"><g id="svga-group-glasses-single"></g></g></g></g></g><rect id="svga-credit-rect" width="200" height="15" x="0" y="185" fill="#ecf0f1" opacity="0.5" style="display: none;"></rect><text id="svga-credit-text" font-family="Avenir Next, Roboto, Helvetica, Arial, sans-serif" font-size="10px" text-anchor="start" font-weight="400" size="10px" anchor="start" weight="400" fill="#333333" x="33.40447998046875" y="182.60824704170227" style="display: none;"><tspan id="SvgjsTspan38594" dy="13" x="33.40447998046875">Created on AvatarMaker.com</tspan></text></g><defs id="SvgjsDefs38546"></defs></svg>
