<svg xmlns="http://www.w3.org/2000/svg" version="1.1" width="600px" height="600px" viewBox="0 0 200 200" style="overflow:hidden!important;"><defs id="SvgjsDefs16765"></defs><g id="svga-group-wrapper"><g id="svga-group-backs-single"></g><g id="svga-group-humanwrap-move" transform="matrix(1,0,0,1,0,0)"><g id="svga-group-humanwrap" transform="matrix(1,0,0,1,0,0)"><g id="svga-group-hair-back-move" transform="matrix(1,0,0,1,0,0)"><g id="svga-group-hair-back" transform="matrix(1,0,0,1,0,0)"></g></g><g id="svga-group-humanbody-back"><path id="SvgjsPath17025" d="m168.2 200-4.6-14.2-34.9-13.4-10.8-9.7-1.4-50.5h-33l-1.4 50.5-10.8 9.7-34.9 13.4-4.6 14.2-3 20h142.4z" fill="#b2713b" stroke-width="none" opacity="1" stroke="none"></path><path id="SvgjsPath17026" d="m83.5 112.2-1.4 50.5-10.8 9.7-34.9 13.4-4.6 14.2-3 20H39v-20l1.7-13.3 32.1-12.9 14.1-9.5 2-52.1z" fill="#934d13" stroke-width="none" opacity="1" stroke="none"></path></g><g id="svga-group-chinshadow-single"><path id="SvgjsPath17268" d="m117.6 154.2-1.1-42.1h-33l-1.2 44.4c2.5 1 4.3 1.7 4.3 1.7h21.3c0 .1 4.7-1.7 9.7-4z" fill="#843e04" stroke-width="none" opacity="1" stroke="none"></path></g><g id="svga-group-humanbody-front"></g><g id="svga-group-clothes-single"><path id="SvgjsPath17389" d="m168.5 186.5-3.5-.9-4.9-2.9-22.4-8.4-37.6 12.2-37.8-12.3-22.4 8.5-4.9 2.9-3.5.9-4.4 13.4V220h145.8v-20.1z" fill="#39557e" stroke-width="none" opacity="1"></path><path id="SvgjsPath17390" d="m100.1 186.5-37.8-12.3-22.3 8.4-4.9 2.9-3.5.9-4.4 13.4V220h8.4l-1.9-17.8 3.6-9.9 1.2-.7 5.1 9.2L46 220h1.5l-2.8-20-6-8.6 5.4-3.3s7.2-1.8 12.7-3.2l.7 1.8 4 1.6L75.8 200l1.6-1.6 13.3 7.3 10.9 2.4.3 12h2.8l-.7-11.3 9 3.2 3.3-4.5 5.7-.6 8.3-8.3 5.1-.6 4-6.3 4.9-3 3.2-1.6.8-6.3 1.2-2-11.9-4.5-37.5 12.2zm63.7 2.2-8.9 11.7-1.1 19.6h2.6l-.2-19.2 7.6-12.1z" fill="#27446f" stroke-width="none" opacity="1"></path><path id="SvgjsPath17391" d="m111.3 209.9-7.4-5.2.2 2.3-11-5.4.5 2.1-9-4.9.7 2-7.8-4.7-2 .3-7.7-6.5.3 2-4.6-3.9-1.3-3.8-.7 1-2.1-3.1-.8-2.1-1 1.1-3.6-5.6 1.3-12.3 3.9-6.2h-1.8l7-5.6 8-4.1-1.3-.8 7.7-.8 3.7.1-.2 5.2 2.4 10.2 4.5 4.5-1.1.1 3.6 2.5 4.5 3.3s-1.7 0-1.6-.1 3.6 3.6 3.6 3.6l3.8 2.8-1 .2 2.5 2.4 1.7 1.7 5.4-6.6h-1.3l4.3-5.2-1.5-.2 3.9-7.1-1.2.1 1.9-6.6.5-11 9.5 1.9-1 .6 10.2 2.1 7.4 5.5h-2.4l5.6 6.2 1 4.3-1.5-1.1 2.2 5.9-1 5.6-1.4-3.3s.1 6.3-.1 6.7c-.2.4-3.1 5.6-3.1 5.6l-.9-3.4-6.8 11.5-4 2.5.7-2.3-2.2 2.3-5.3 6.7-.1-2.3-5.7 3.3-3.2.9-.2-1.7-2.3 3.6.8 3.3-.6 2.1-1.5-2.2z" fill="#667c9d" stroke-width="none" opacity="1"></path><path id="SvgjsPath17392" d="m111.3 209.9-7.4-5.2.2 2.3-11-5.4.5 2.1-9-4.9.7 2-7.8-4.7-2 .3-7.7-6.5.3 2-4.6-3.9-1.3-3.8-.7 1-2.1-3.1-.8-2.1-1 1.1-3.6-5.6 1.3-12.3 3.9-6.2h-1.8l7-5.6 8-4.1-1.3-.8 7.7-.8 3.7.1-.2 5.2 2.4 10.2 4.5 4.5-1.1.1 3.6 2.5 4.5 3.3s-1.7 0-1.6-.1 3.6 3.6 3.6 3.6l3.8 2.8-1 .2 2.5 2.4 1.7 1.7 5.4-6.6h-1.3l4.3-5.2-1.5-.2 3.9-7.1-1.2.1 1.9-6.6.5-11 9.5 1.9-1 .6 10.2 2.1 7.4 5.5h-2.4l5.6 6.2 1 4.3-1.5-1.1 2.2 5.9-1 5.6-1.4-3.3s.1 6.3-.1 6.7c-.2.4-3.1 5.6-3.1 5.6l-.9-3.4-6.8 11.5-4 2.5.7-2.3-2.2 2.3-5.3 6.7-.1-2.3-5.7 3.3-3.2.9-.2-1.7-2.3 3.6.8 3.3-.6 2.1-1.5-2.2z" fill="#ffffff" stroke-width="none" opacity="0.85"></path><path id="SvgjsPath17393" d="m102.2 180.6 3.2 1.5 6.6 5.7 1.9 4-3.1-3.6 3.5 6.4.9 4.8s-1-1.9-1.2-1.6.9 3.6.9 3.6l.3 1.5-2.1-2.6-.8-5.3 1.4.5-5.4-8.6.6-.5-4-3.9-2.7-1.9zm-35.3 1.7 2.1 4.5 6.3 5.7-1.2-3.1 4.8 4.6 6.3 1-5.5-1.7-6.6-6.3-.4 1.8-3.2-2.8-2.6-3.7zm-3.9-16-.1 6.7 4.9 6.1-4-6.4-.8-6.4zm7.7 11.6 3.5 6.1 7.6 2.4-7-3.6-4.1-4.9zm15.9 13.7 4.2 4.6 10.2 4.6-9.8-5.3-4.6-3.9zm-15.1-37.9-4.4 4.2-1.4 7.5 3.6 7.5-2.4-8 1.2-6.8 3.4-4.4zm-.5 12.5 2.1 6.6.8 5.5.3-6.3-3.2-5.8zm5.3 10.1 3.2 5 3.2 1.7-3.1-3.3-3.3-3.4zm-14.1-.8c-.1.4.3 5.1.3 5.1L66 186l-2.6-5.9-1.2-4.6zm36.1 20.6 9.5 2.7s3.3 4.5 3 4.4-3.2-2.7-3.2-2.7l2.4 4.5 1 3.4-1.9-2.7-3.5-5.7-5.8-2.6-3.9-1-2.3-2.8 4.7 2.5zm-7.9-19.2 6 1.8 3 3-3.6-2.3-5.4-2.5zm34.8-26.3 3.5 8.8-1.5-1.2.4 7.1-3.2 4.9 2.1-5.5-.9-8.4.9.1-1.3-5.8zm-4.1 22.8-3.5 5.8-3.7 1.2-3.5 3 4.4-2.4 4.1-.9 2.2-6.7zm7.5-5.4-2.6 4-1.8 5 2.6-4.9 1.8-4.1zM114 196.6l1.6-5.4s4-3.2 4.1-3.6 3.1-4.9 3.1-4.9l-1.7 6.7-2.4 5.1 1-4.6-3.2 1.8-2.5 4.9zm11.6-47.1s9.8 1.7 10.2 1.9 5.4 4.3 5.4 4.3l-6.5-3.4-9.1-2.8zm12.7 9.4s5.7 7.5 5.8 7.9-.8 6.8-.8 6.8l-.8-7.2-4.2-7.5zm2.8 14.5s-.5 8.2-.8 8.6c-.3.4-4.1 6.8-4.1 6.8l3.5-7.2 1.4-8.2zm-6.4 12.9-1.6 3.7-3.7 3.2 2.7-3.6 2.6-3.3zm-63.5-39.9 1.3.8-8 4.1-7 5.6h1.8l-3.9 6.2-.7 6.5 1.9-5-.6 6.7 1.3 4.6.5-3.1 3 4-1.5-4.4.8-10.3 4.9-5.7-2.8-.8 11.5-6.1.1-2.6s1-.5 2-1.1l-4.6.6zm17 19.2 1.1-.1-4.5-4.5-1.8-10-.4-5.3h-.3l-5.6 2.6-.9 8.1 1.9-3 1.7 7.2L87 167l-1.7-2.7 5.7 4.5 5.3 2.5-4.5-3.3-3.6-2.4zm23.4 11.7.2-2.8 2.5-1 2.4-5.8.5 3.2 2.8-9.8-2.1-.1.9-6.3.9 3.4 1.3-7.6-3.3-4.7-.3-.1-.5 11-1.9 6.6 1.2-.1-3.9 7 1.5.2-4.3 5.2h1.3l-5.4 6.6 1.4-.1 4.8-4.8z" fill="#27446f" stroke-width="none" opacity="0.25"></path><path id="SvgjsPath17394" d="m76.6 186.7 3.3 4.4 6.4 1.9-6-3.1-3.7-3.2zm2.1-22.6 7 3.6 3.4 3.6 6.7 2.2-4.8-.4s3.8 2.9 4.2 2.9 3.6.4 3.6.4l2.1 3.7-2.7-3h-4l-6.4-4.9-3.4-4 .7 3.7 2.5 2.9-3.3-2.3-1.5-5.2-4.1-3.2zm9.2 14.9 3.1 4.2s6.7 1.4 6.3 1.2-5.7-2.3-5.7-2.3l-3.7-3.1zm12.6 5.3 4.4 2.1 2.2 4.5-2.9-3.8-3.7-2.8zm-5.5 2.2 4.4.5 3 2.5-3.5-1.6-3.9-1.4zm16.7 12.7-2-2.9-1.5-3.6-3.3-1.4 2.6 1.9 1.5 3.3 2.7 2.7zM80 169.9c-.3-.4-4.6-5.5-4.6-5.5l1-7.4.6 7.1 3 5.8zm-6.5-11c0-.6.4-7.9.4-7.9l2.1-2.5-1.2 4.6-1.3 5.8zm11.7 26.8 2.7 2.7 4.4.6-4.1-1.4-3-1.9zm-15.8-24.3-.9 4.1 2.7 7.2 1.1 5.7-.1-6.6-2.9-6.7.1-3.7zm12.5 13.5 2.6 4.6 3.8 2.9-3.4-3.5-3-4zm48.5-21.2 6.7 5.1 2.6 5.9-2.5-2.2 2.2 5.7-2.3 6.8.3-6-2.9 6.6 1.8-9 1.5.3-2.9-6.1 1.2-1.5-5.7-5.6zm6.7 25-1.8 5.5-4.1 3.4 2.9-4 3-4.9zm7.5-3.8-.4 4.5s-1.5 4.5-1.4 4.1c.1-.4 2.5-4.2 2.5-4.2l-.7-4.4zm-17.3-23.8s6.4 1.6 7 1.8 3.8 2.6 3.8 2.6l-5.1-2.1-5.7-2.3zm-7.3-3.8 5 4.4.4 4.6-1.6-4.2 1.2 11.3-3.5 5.5 2.2-7-1-7.9-2.3 4.5 1.5-6-.5-2.9-1.4-2.3zm2.8 27.9-2.3 7.9-4.2 2.6 3.4-3.8 3.1-6.7zm8.8-9.7 1.2 6.7-1.8 6 .4-5.7.2-7zm.6 14.6-2.5 4.8-4.4 1.9 3.4-2.9 3.5-3.8zm-1.8-6.4-.9 5.1-2.2 3 1.4-3.8 1.7-4.3zm-3.5 19.9-2.2 3.5-5.1 3.4-2.6 2.5 1.6-3.6 5.5-2.9 2.8-2.9zm1.2-5.6-3 4-1.5 4.4.1-4.1 4.4-4.3z" fill="#ffffff" stroke-width="none" opacity="1"></path></g><g id="svga-group-head" transform="matrix(1,0,0,1,0,0)"><g id="svga-group-ears-left-move" transform="matrix(1,0,0,1,0,0)"><g id="svga-group-ears-left" transform="matrix(1,0,0,1,0,0)"><path id="SvgjsPath17272" d="M61.9 93s-5.5-3-7.7-3.9c0 0-3.9 5.4-5.1 7.2 0 0 3.1 14.7 3.9 17.3l5 6.5 5.4-1.7 4.2-14.2L61.9 93z" fill="#b2713b" stroke-width="none" opacity="1" stroke="none"></path><path id="SvgjsPath17273" d="M59.8 104.7c-.2-.4-6-10-6-10l-2.3 7.9 2.6-2.4 1.6 2.9s-.3 5-.2 5.5c0 .5 2.4 4.3 2.4 4.3l1.9-8.2z" fill="#934d13" stroke-width="none" opacity="1" stroke="none"></path><path id="SvgjsPath17274" d="m59.4 98-5.2-8.9c2.2.9 7.7 1.8 7.7 1.8l5.7 13.3-4.2 14.2-5.4 1.7 3.6-3.4L59.4 98z" fill="#a35e26" stroke-width="none" opacity="1" stroke="none"></path></g></g><g id="svga-group-ears-right-move" transform="matrix(1,0,0,1,0,0)"><g id="svga-group-ears-right" transform="matrix(1,0,0,1,0,0)"><path id="SvgjsPath17275" d="M138.1 93s5.5-3 7.7-3.9c0 0 3.9 5.4 5.1 7.2 0 0-3.1 14.7-3.9 17.3l-5 6.5-5.4-1.7-4.2-14.2 5.7-11.2z" fill="#b2713b" stroke-width="none" opacity="1" stroke="none"></path><path id="SvgjsPath17276" d="M140.2 104.7c.2-.4 6-10 6-10l2.3 7.9-2.6-2.4-1.6 2.9s.3 5 .2 5.5c0 .5-2.4 4.3-2.4 4.3l-1.9-8.2z" fill="#934d13" stroke-width="none" opacity="1" stroke="none"></path><path id="SvgjsPath17277" d="m140.6 98 5.2-8.9c-2.2.9-7.7 1.8-7.7 1.8l-5.7 13.3 4.2 14.2 5.37 1.68-3.57-3.38 2.2-18.7z" fill="#a35e26" stroke-width="none" opacity="1" stroke="none"></path></g></g><g id="svga-group-faceshape-wrap" transform="matrix(1,0,0,1,0,0)"><g id="svga-group-faceshape-single"><path id="SvgjsPath17258" d="M136.8 61c-6.7-11.2-19-18.9-19-18.9-7-1.5-17.8-2.2-17.8-2.2s-10.8.8-17.8 2.2c0 0-12.4 7.6-19 18.9 0 0-5 14-5.2 23.9l.9 19.9 5.4 26.7 3.6 9.7c4.1 3.8 21.5 10.1 21.5 10.1h21.3s17.4-6.3 21.5-10.1l3.6-9.7 5.4-26.7.8-19.8c-.3-9.9-5.2-24-5.2-24z" fill="#b2713b" stroke-width="none" opacity="1" stroke="none"></path><path id="SvgjsPath17259" d="m110.3 149.4-22.6-.3L71.9 138l-8.7-32L62 82.8c0-3.1 4.6-20.8 4.6-20.8l17.7-16.1 15.5-3.7 18-.1c-7-1.5-17.8-2.2-17.8-2.2s-10.8.8-17.8 2.2c0 0-12.4 7.6-19 18.9 0 0-5 14-5.2 23.9l.9 19.9 5.4 26.7 3.6 9.7c4.1 3.8 21.5 10.1 21.5 10.1h21.3s17.4-6.3 21.5-10.1c-.3-.6-21.9 8.2-21.9 8.2z" fill="#934d13" stroke-width="none" opacity="1" stroke="none"></path></g></g><g id="svga-group-mouth-single-move" transform="matrix(1,0,0,1,0,0)"><g id="svga-group-mouth-single" transform="matrix(1,0,0,1,0,3)"><path id="SvgjsPath17332" d="m90.86 133.49.13 1.07 6.52 3.88 11.26-1.42 5.5-6.18s-14.32-.27-14.52-.27-8.89 2.92-8.89 2.92z" fill="#9B565F" stroke-width="none" opacity="1" stroke="none"></path><path id="SvgjsPath17333" d="m87.85 133.25 3.14 1.31 9.34-2.99 13.94-.73 3.94-3.5 1.03.51-2.27-2.56.29 1.97-3.57 2.05-8.83-2.27-3.94 2.34-4.89-1.39-6.94 4.89z" fill="#8c4049" stroke-width="none" opacity="1" stroke="none"></path><path id="SvgjsPath17334" d="m96.42 133.72 4.19-1.4 6.91-.15-6.6 1.63z" fill="#aa7077" stroke-width="none" opacity="1" stroke="none"></path></g></g><g id="svga-group-eyes-left-move" transform="matrix(1,0,0,1,0,0)"><g id="svga-group-eyes-left" transform="matrix(1,0,0,1,0,0)"><g id="svga-group-eyesback-left"><path id="SvgjsPath17412" d="M90.3 103.8s-.4-5.3-1.7-6.9c-.2-.2-13.7.2-16.8.3l1.1 6.1 1.8 1.4s14.6-.5 15.6-.9z" fill="#ffffff" stroke-width="none" opacity="1"></path></g><g id="svga-group-eyesiriswrapper-left" transform="matrix(1,0,0,1,0,0)"><g id="svga-group-eyesiriscontrol-left" transform="matrix(1,0,0,1,0,0)"><g id="svga-group-eyesiris-left" transform="matrix(1,0,0,1,0,0)"><path id="SvgjsPath17304" d="m82.59 104.53-4.96-1.82-.91-5.21 4.06-3.39 4.96 1.82.91 5.21z" fill="#66724e" stroke-width="none" opacity="1"></path><path id="SvgjsPath17305" d="m78.19 100.47.77-3.59 3.49-1.14 2.73 2.46-.77 3.59-3.49 1.13z" fill="#000000" stroke-width="none" opacity="1"></path><path id="SvgjsPath17306" d="m78.52 96.52 3.23 3.6-1.39-5.36z" fill="#ffffff" stroke-width="none" opacity="1"></path></g></g></g><g id="svga-group-eyesfront-left"><path id="SvgjsPath17420" d="M67.97 94.46v11.11l7.69 7.86h10.87l7.69-7.86V94.46l-7.69-7.86H75.66l-7.69 7.86zm3.86 2.65c3.04-.11 16.59-.48 16.75-.27 1.26 1.68 1.71 6.94 1.71 6.94-.96.43-15.58.91-15.58.91l-1.76-1.44-1.12-6.14z" fill="#b2713b" stroke-width="none" opacity="1"></path><path id="SvgjsPath17421" d="M89.52 97.01s1.79 7.08 1.68 7.85-2.76.44-2.76.44l-.88-.99-1.55-.11 4.14-.66s-.39-4.2-1.66-6.52H75.74l16.44-.69-2.66.68z" fill="#a35e26" stroke-width="none" opacity="1"></path><path id="SvgjsPath17422" d="M91.02 95.31h-7.06c-.2 0-11.33.91-11.33.91l11.74-1.52 6.65.61z" fill="#a35e26" stroke-width="none" opacity="1"></path><path id="SvgjsPath17423" d="m70.17 103.67 2.09-1.33-.41-3.57-3.8-1.83 3.6.1 1.61-.05-1.79-1.16 3.2 1.12 1.51-.04-1.55-1.21 2.47 1.18 8.83-.25 3.98.3-10.58.21-6.69 1.61.54 4.13 2.28 1.73 6.66-.15-7.22.76-1.26.65.61-1.16-.65-.51-1.36 1 .89-1.36-.77-.6z" fill="#2e0914" stroke-width="none" opacity="1"></path></g></g></g><g id="svga-group-eyes-right-move" transform="matrix(1,0,0,1,0,0)"><g id="svga-group-eyes-right" transform="matrix(1,0,0,1,0,0)"><g id="svga-group-eyesback-right"><path id="SvgjsPath17413" d="M109.7 103.8s.4-5.3 1.7-6.9c.2-.2 13.7.2 16.8.3l-1.1 6.1-1.8 1.4s-14.6-.5-15.6-.9z" fill="#ffffff" stroke-width="none" opacity="1"></path></g><g id="svga-group-eyesiriswrapper-right" transform="matrix(1,0,0,1,0,0)"><g id="svga-group-eyesiriscontrol-right" transform="matrix(1,0,0,1,0,0)"><g id="svga-group-eyesiris-right" transform="matrix(1,0,0,1,0,0)"><path id="SvgjsPath17307" d="m119.22 104.53-4.96-1.82-.91-5.21 4.06-3.39 4.96 1.82.91 5.21z" fill="#66724e" stroke-width="none" opacity="1"></path><path id="SvgjsPath17308" d="m114.82 100.47.77-3.59 3.49-1.14 2.73 2.46-.77 3.59-3.49 1.13z" fill="#000000" stroke-width="none" opacity="1"></path><path id="SvgjsPath17309" d="m115.15 96.52 3.23 3.6-1.39-5.36z" fill="#ffffff" stroke-width="none" opacity="1"></path></g></g></g><g id="svga-group-eyesfront-right"><path id="SvgjsPath17424" d="M124.34 86.6h-10.87l-7.69 7.86v11.11l7.69 7.86h10.87l7.69-7.86V94.46l-7.69-7.86zm2.71 16.65-1.76 1.44s-14.62-.48-15.58-.91c0 0 .45-5.25 1.71-6.94.16-.21 13.71.16 16.75.27l-1.12 6.14z" fill="#b2713b" stroke-width="none" opacity="1"></path><path id="SvgjsPath17427" d="M110.48 97.01s-1.79 7.08-1.68 7.85 2.76.44 2.76.44l.88-.99 1.55-.11-4.14-.66s.39-4.2 1.66-6.52h12.76l-16.44-.69 2.65.68z" fill="#a35e26" stroke-width="none" opacity="1"></path><path id="SvgjsPath17428" d="M108.98 95.31h7.06c.2 0 11.33.91 11.33.91l-11.74-1.52-6.65.61z" fill="#a35e26" stroke-width="none" opacity="1"></path><path id="SvgjsPath17429" d="m129.83 103.67-2.09-1.33.41-3.57 3.8-1.83-3.6.1-1.61-.05 1.79-1.16-3.2 1.12-1.51-.04 1.55-1.21-2.47 1.18-8.83-.25-3.98.3 10.58.21 6.69 1.61-.54 4.13-2.28 1.73-6.66-.15 7.22.76 1.26.65-.61-1.16.65-.51 1.36 1-.89-1.36.77-.6z" fill="#2e0914" stroke-width="none" opacity="1"></path></g></g></g><g id="svga-group-facehighlight-single"></g><g id="svga-group-eyebrows-left-move" transform="matrix(1,0,0,1,0,0)"><g id="svga-group-eyebrows-left-rotate" transform="matrix(1,0,0,1,0,0)"><g id="svga-group-eyebrows-left" transform="matrix(1,0,0,1,0,0)"><path id="SvgjsPath17363" d="m92.2 86.7.3 3.1-3.2 1.6-14.9-6.7-8.2 5.2 7.6-8.3 9.4 1.6z" fill="#fef6e1" stroke-width="none" opacity="1"></path><path id="SvgjsPath17364" d="m78.1 85.6-1.2-2.2 3.6 3.1 5.9 2.9-1-3.6 3.7 5.1s1.8-.7 3.4-1.3v.4l-3.2 1.6-14.8-6.7-8.2 5.2 7.5-6 4.3 1.5z" fill="#efe1bc" stroke-width="none" opacity="1"></path><path id="SvgjsPath17365" d="m79.2 82.5 1.9 3.1-3.6-3.4 1.7.3zm9.8 3 .6 3.7-2.2-4.4 1.6.7zm-15.2-3.9 2 1.8-2.4-1.4.4-.4z" fill="#fffefb" stroke-width="none" opacity="1"></path></g></g></g><g id="svga-group-eyebrows-right-move" transform="matrix(1,0,0,1,0,0)"><g id="svga-group-eyebrows-right-rotate" transform="matrix(1,0,0,1,0,0)"><g id="svga-group-eyebrows-right" transform="matrix(1,0,0,1,0,0)"><path id="SvgjsPath17366" d="m107.8 87-.2 3.1 3.2 1.5 14.8-7 8.3 5.1-7.8-8.3-9.3 1.8z" fill="#fef6e1" stroke-width="none" opacity="1"></path><path id="SvgjsPath17367" d="m121.9 85.5 1.2-2.2-3.5 3.1-5.9 3 1-3.6L111 91s-1.8-.6-3.4-1.3v.4l3.3 1.5 14.7-7 8.3 5.1-7.6-5.8-4.4 1.6z" fill="#efe1bc" stroke-width="none" opacity="1"></path><path id="SvgjsPath17368" d="m120.7 82.5-1.9 3.1 3.5-3.4-1.6.3zm-9.8 3.2-.5 3.8 2.2-4.4-1.7.6zm15.2-4.3-2 1.8 2.4-1.4-.4-.4z" fill="#fffefb" stroke-width="none" opacity="1"></path></g></g></g><g id="svga-group-nose-single-move" transform="matrix(1,0,0,1,0,0)"><g id="svga-group-nose-single" transform="matrix(1,0,0,1,0,2)"><path id="SvgjsPath17344" d="m97.03 96.97-2.14 12.92h-1.87l-2.32 3.48.35 5.62 1.43 1.78 3.48-.8-3.39-.36-.8-1.69-.09-4.64 1.78-2.49 3.3-.54-1.16-.89z" fill="#934d13" stroke-width="none" opacity="1"></path><path id="SvgjsPath17345" d="m102.56 96.97 2.14 12.92h1.87l2.32 3.48-.36 5.62-1.43 1.78-3.47-.8 3.38-.36.81-1.69.09-4.64-1.79-2.49-3.3-.54 1.16-.89z" fill="#934d13" stroke-width="none" opacity="1"></path><path id="SvgjsPath17346" d="m104.52 115.42-1.7 1.34-1.69 3.39H98.45l-1.69-3.39-1.69-1.34-2.14 2.05 1.6 1.52 1.43-1.61 2.05 3.66H101.58l2.05-3.66 1.42 1.61 1.61-1.52z" fill="#934d13" stroke-width="none" opacity="1"></path><path id="SvgjsPath17347" d="m100.4 97.56.24 13.37 3.63 1.17-3.28 4.57h-1.87l.35-19.46z" fill="#ba7b47" stroke-width="none" opacity="1"></path></g></g><g id="svga-group-hair-front" transform="matrix(1,0,0,1,0,0)"><path id="SvgjsPath17469" d="m61 99.3-6.1-11.6L53 72.1l-10.6-1.3-5.1-8.4 2.8-14.8 7.1-7.2 5.1-10.1 15.2-7.8 12.3 3.1 1.5 2.6 5 6.5-.4 3.4 8.7.2 4.8 1.1 4-1.1 10.6.7-.4-3.6 6.3-7.9 9.1 1.1 13.3-.2 9.7 7 2.7 7.3 8 13.3-.2 6.6-4.2 6.3-5.3 3-6.7.2-.7 12.2-1 4.9-5.3 8.9.6-14.4-5-10.6-11.4-9.5-14.4-2.5-8 2.8-10.4-2.8-12.6 3.4-11 9.3L61 83.9z" fill="#fef6e1" stroke-width="none" opacity="1"></path><path id="SvgjsPath17470" d="m85.5 59-6.1 10.2 4.9 13.7-2.1-12.7 7.4-10.1h5.1l6.3 3.8-6-6.2-9.5 1.3zM70.2 44.1l-3.6-14.6 1.7 13.4L61 54.4l-9.2-.8-2.6-9.6 1.5 11 11.5 1.5 8-12.4zm-29.8 8.7 3.2 12-1.5-11.7 5.4-9.5-7.1 9.2zm111.8-12.4-5.9-2.9-9.8 2.9-.7 10.7 9.3 8.5-7.6-9.2 1-7.8 6.8-3 5.9 1.9 3.6 5.1-2.6-6.2zm-38.6 19.8 13.9-.7 7.1-6.1-7.8 4.6-13.2 2.2zm-2.7-12.7-7.6 4.8 8.1-2.9 17.1-1-17.6-.9zM73.1 60.4l4.7 2.5-8.6-8.1 3.9 5.6zm-10.5.7c-.2.5-.7 8.5-.7 8.5l2.9 5.8-1.5-7.4-.7-6.9z" fill="#fffaef" stroke-width="none" opacity="1"></path><path id="SvgjsPath17471" d="M77.3 45.9h11.8l11 2.5-4-3.2-8.4-1.9-10.4 2.6zm47.9-1.5-6.1-1.5-11.8 1.7-5.9 4.8 8.9-3.4 14.9-1.6zm.4 8.3-14.4 1.1-10.6 5.5 19.2-2.3 13.1-5.1-7.3.8zm30.8-1.1-6.6-7.4-6.8 1.9-.6 5.5 3.2-3.6 8.7 4.2-.8 7.2 2.9-7.8zM54.1 61.2l2.2-.4h-2.1l1-3.8-1.8 3.8H49l-3.8-8.4 2.1-12-3.9 4-.8 4.2.8 6.7 5.5 7 4.3-.9-3.4 6.9-7 .2-4-3.5 3.6 5.8 6.1.8h.3l3.8-4.7 1.5-5.7zm16.4-9.6 2-1.7 12.5.6 11.2 4.9 3 2.5-5.9-7.8-12.9-1.9-7.8 1.6 9.1-7.9 6.6-3.8L86 38l.4-3.4-4.9-6.5-.9-1.1c-3.8-1.2-9.3-3-13.6-4.2L64.7 24c3.8.8 11.1 2.4 15.9 3.4-1 4.7-2.3 10.1-2.3 10.1s-9.5 2.3-8.9 2.3c.4 0 4.7 1.2 7.8 2l-9.4 6.8-7-2.5-2.5-4.2s2-11.5 3.1-16.3L58.8 27c-2.1 7.2-5.2 18.7-5.2 18.7l8.9 5.9h8zm-5.6 4.8 4.2-3.6-9.6 6.2-7 13 .6.1L55 87.7l6 11.6V83.9l1.8-3-2.6-4.4 1-16.9 3.7-3.2c.1 1.6.7 8.2 1 8.7.2.3 3.1 2.8 5.6 4.9l2.8-2.3-5.3-3.6-4.1-7.7zm54.4-16.6 10.4 6.1-9.3-9.9 3.5-8-4.1-.5-6.3 8 .5 3.5 5.3.8zm22.3-2.8h6.8l5.7 4.2-2.1-5.7-6.6-2.3-12.7 3.6s-.2 13.1-.2 13.7l3-10.1 6.1-3.4zm17.8 28.3-5.9 4.2-4.6-1.1-1.5-3.2 4-2.7s-5.5-.4-6.6-.6-5.7-6.8-5.7-6.8l1.5-9.5-3.2 9.7v.1l-7.1 6.2L124 64l3.5 2.9 5.3-2.6 4.7-8.7.8 3.7 1.9 3c-.8 3.2-1.9 7.7-1.9 8 0 .3-1.5 1.9-3.1 3.4l2.3 4.9 3.6-7.6-.1-7.4 4 6.4-1.3 12.8-4.1 8.2-.3 7.2 5.3-8.9.9-4.9.8-12.2 6.6-.2 5.3-3 4.2-6.3.2-6.7-3.2 9.3zm-69.7-5.2-7.4 10.1 6.9-7.8 5.4-1.2 6.5 2.7-6.3-3.8h-5.1z" fill="#f6ebce" stroke-width="none" opacity="1"></path></g><g id="svga-group-glasses-single-move" transform="matrix(1,0,0,1,0,0)"><g id="svga-group-glasses-single" transform="matrix(1,0,0,1,0,0)"></g></g></g></g></g><rect id="svga-credit-rect" width="200" height="15" x="0" y="185" fill="#ecf0f1" opacity="0.5" style="display: none;"></rect><text id="svga-credit-text" font-family="Avenir Next, Roboto, Helvetica, Arial, sans-serif" font-size="10px" text-anchor="start" font-weight="400" size="10px" anchor="start" weight="400" fill="#333333" x="33.40447998046875" y="182.60824704170227" style="display: none;"><tspan id="SvgjsTspan16813" dy="13" x="33.40447998046875">Created on AvatarMaker.com</tspan></text></g></svg>
